{"asset":{"version":"2.0","generator":"babylon.js glTF exporter for Autodesk Maya 2020.4 v20230922.2"},"scene":0,"scenes":[{"nodes":[0]}],"nodes":[{"children":[1],"name":"OvniRig"},{"children":[2,3,10,17,24],"translation":[0.0,0.872513354,0.0],"rotation":[0.0,0.0,0.707106769,0.707106769],"name":"Ovni"},{"mesh":0,"translation":[-1.42108544E-16,-3.76137633E-16,1.42108544E-16],"rotation":[0.0,0.0,-0.707106769,0.707106769],"name":"Ovni (1)"},{"children":[4],"translation":[-0.5843363,-0.9517471,-0.307881057],"rotation":[0.5715453,0.5715453,-0.416336358,0.416336358],"name":"RootLeg3"},{"children":[5,9],"translation":[-9.57567355E-18,0.341354549,-0.100611567],"rotation":[0.4088788,-0.576903939,-0.4088788,0.576903939],"name":"LegRig"},{"children":[6,8],"translation":[0.265991658,-0.00114884193,-3.230572E-17],"rotation":[0.0,0.0,0.00584620237,0.9999829],"name":"joint2"},{"children":[7],"translation":[0.268226534,0.002140052,-0.002482253],"rotation":[0.981642365,-0.190730989,-1.16789043E-17,6.010826E-17],"name":"joint3"},{"mesh":1,"translation":[-0.3188804,0.14797467,-7.105427E-17],"rotation":[0.4913089,-0.5085426,0.4913089,0.5085426],"name":"LegB"},{"mesh":2,"translation":[-0.0300394669,-0.0178008173,2.71651929E-19],"rotation":[-0.4054991,0.5792844,0.4054991,0.5792844],"name":"Leg"},{"mesh":3,"translation":[0.334412754,-0.0181508288,-1.13653147E-16],"rotation":[-0.4088788,0.576903939,0.4088788,0.576903939],"name":"Foot"},{"children":[11],"translation":[-0.5843363,0.9553254,0.296591759],"rotation":[-0.419712365,-0.419712365,-0.569070756,0.569070756],"name":"RootLeg1"},{"children":[12,16],"translation":[-9.57567355E-18,0.341354549,-0.100611567],"rotation":[0.4088788,-0.576903939,-0.4088788,0.576903939],"name":"LegRig (1)"},{"children":[13,15],"translation":[0.265991658,-0.00114884193,-3.230572E-17],"rotation":[0.0,0.0,0.00584620237,0.9999829],"name":"joint2 (1)"},{"children":[14],"translation":[0.268226534,0.002140052,-0.002482253],"rotation":[0.981642365,-0.190730989,-1.16789043E-17,6.010826E-17],"name":"joint3 (1)"},{"mesh":4,"translation":[-0.3188804,0.14797467,-7.105427E-17],"rotation":[0.4913089,-0.5085426,0.4913089,0.5085426],"name":"LegB (1)"},{"mesh":5,"translation":[-0.0300394669,-0.0178008173,2.71651929E-19],"rotation":[-0.4054991,0.5792844,0.4054991,0.5792844],"name":"Leg (1)"},{"mesh":6,"translation":[0.334412754,-0.0181508288,-1.13653147E-16],"rotation":[-0.4088788,0.576903939,0.4088788,0.576903939],"name":"Foot (1)"},{"children":[18],"translation":[-0.5843363,-0.00118831254,1.00030589],"rotation":[0.0,0.0,-0.707106769,0.707106769],"name":"RootLeg"},{"children":[19,23],"translation":[-9.57567355E-18,0.341354549,-0.100611567],"rotation":[0.4088788,-0.576903939,-0.4088788,0.576903939],"name":"LegRig (2)"},{"children":[20,22],"translation":[0.2921097,-0.000843443559,-3.20281653E-17],"rotation":[0.0,0.0,0.00584620237,0.9999829],"name":"joint2 (2)"},{"children":[21],"translation":[0.268226534,0.002140052,-0.002482253],"rotation":[0.981642365,-0.190730989,-1.16789043E-17,6.010826E-17],"name":"joint3 (2)"},{"mesh":7,"translation":[-0.3188804,0.14797467,-7.105427E-17],"rotation":[0.4913089,-0.5085426,0.4913089,0.5085426],"name":"LegB (2)"},{"mesh":8,"translation":[-0.0300394669,-0.0178008173,2.71651929E-19],"rotation":[-0.4054991,0.5792844,0.4054991,0.5792844],"name":"Leg (2)"},{"mesh":9,"translation":[0.334412754,-0.0181508288,-1.13653147E-16],"rotation":[-0.4088788,0.576903939,0.4088788,0.576903939],"name":"Foot (2)"},{"children":[25],"translation":[-0.5843363,-0.001154835,-1.000306],"rotation":[0.7071063,0.7071063,-0.0008281738,0.0008281738],"name":"RootLeg2"},{"children":[26,30],"translation":[1.05124243E-15,0.344697118,-0.101785131],"rotation":[0.4088788,-0.576903939,-0.4088788,0.576903939],"name":"LegRig (3)"},{"children":[27,29],"translation":[0.2859523,-0.0009154422,-9.65894037E-17],"rotation":[0.0,0.0,0.00584620237,0.9999829],"name":"joint2 (3)"},{"children":[28],"translation":[0.268226534,0.002140052,-0.002482253],"rotation":[-0.984857142,0.0102301911,0.005562161,0.172976375],"name":"joint3 (3)"},{"mesh":10,"name":"LegB (3)"},{"mesh":11,"name":"Leg (3)"},{"mesh":12,"name":"Foot (3)"}],"meshes":[{"primitives":[{"attributes":{"POSITION":1,"TANGENT":2,"NORMAL":3,"TEXCOORD_0":4},"indices":0,"material":0},{"attributes":{"POSITION":6,"TANGENT":7,"NORMAL":8,"TEXCOORD_0":9},"indices":5,"material":1}],"name":"Ovni"},{"primitives":[{"attributes":{"POSITION":11,"TANGENT":12,"NORMAL":13,"TEXCOORD_0":14},"indices":10,"material":0}],"name":"LegB"},{"primitives":[{"attributes":{"POSITION":16,"TANGENT":17,"NORMAL":18,"TEXCOORD_0":19},"indices":15,"material":0}],"name":"Leg"},{"primitives":[{"attributes":{"POSITION":21,"TANGENT":22,"NORMAL":23,"TEXCOORD_0":24},"indices":20,"material":0}],"name":"Foot"},{"primitives":[{"attributes":{"POSITION":26,"TANGENT":27,"NORMAL":28,"TEXCOORD_0":29},"indices":25,"material":0}],"name":"LegB"},{"primitives":[{"attributes":{"POSITION":31,"TANGENT":32,"NORMAL":33,"TEXCOORD_0":34},"indices":30,"material":0}],"name":"Leg"},{"primitives":[{"attributes":{"POSITION":36,"TANGENT":37,"NORMAL":38,"TEXCOORD_0":39},"indices":35,"material":0}],"name":"Foot"},{"primitives":[{"attributes":{"POSITION":41,"TANGENT":42,"NORMAL":43,"TEXCOORD_0":44},"indices":40,"material":0}],"name":"LegB"},{"primitives":[{"attributes":{"POSITION":46,"TANGENT":47,"NORMAL":48,"TEXCOORD_0":49},"indices":45,"material":0}],"name":"Leg"},{"primitives":[{"attributes":{"POSITION":51,"TANGENT":52,"NORMAL":53,"TEXCOORD_0":54},"indices":50,"material":0}],"name":"Foot"},{"primitives":[{"attributes":{"POSITION":56,"TANGENT":57,"NORMAL":58,"TEXCOORD_0":59},"indices":55,"material":0}],"name":"LegB"},{"primitives":[{"attributes":{"POSITION":61,"TANGENT":62,"NORMAL":63,"TEXCOORD_0":64},"indices":60,"material":0}],"name":"Leg"},{"primitives":[{"attributes":{"POSITION":66,"TANGENT":67,"NORMAL":68,"TEXCOORD_0":69},"indices":65,"material":0}],"name":"Foot"}],"accessors":[{"bufferView":0,"componentType":5123,"count":11802,"type":"SCALAR","name":"accessorIndices"},{"bufferView":1,"componentType":5126,"count":4656,"max":[1.39414847,0.427532673,1.39463115],"min":[-1.39414847,-0.4774495,-1.39463115],"type":"VEC3","name":"accessorPositions"},{"bufferView":2,"componentType":5126,"count":4656,"type":"VEC4","name":"accessorTangents"},{"bufferView":1,"byteOffset":55872,"componentType":5126,"count":4656,"type":"VEC3","name":"accessorNormals"},{"bufferView":3,"componentType":5126,"count":4656,"type":"VEC2","name":"accessorUVs"},{"bufferView":0,"byteOffset":23604,"componentType":5123,"count":120,"type":"SCALAR","name":"accessorIndices"},{"bufferView":1,"byteOffset":111744,"componentType":5126,"count":42,"max":[0.889721751,0.289385527,0.8897218],"min":[-0.8897219,0.134941816,-0.889722049],"type":"VEC3","name":"accessorPositions"},{"bufferView":2,"byteOffset":74496,"componentType":5126,"count":42,"type":"VEC4","name":"accessorTangents"},{"bufferView":1,"byteOffset":112248,"componentType":5126,"count":42,"type":"VEC3","name":"accessorNormals"},{"bufferView":3,"byteOffset":37248,"componentType":5126,"count":42,"type":"VEC2","name":"accessorUVs"},{"bufferView":0,"byteOffset":23844,"componentType":5123,"count":432,"type":"SCALAR","name":"accessorIndices"},{"bufferView":1,"byteOffset":112752,"componentType":5126,"count":104,"max":[0.101382308,-0.317830831,0.233645245],"min":[-0.09394077,-0.415492356,0.0383221433],"type":"VEC3","name":"accessorPositions"},{"bufferView":2,"byteOffset":75168,"componentType":5126,"count":104,"type":"VEC4","name":"accessorTangents"},{"bufferView":1,"byteOffset":114000,"componentType":5126,"count":104,"type":"VEC3","name":"accessorNormals"},{"bufferView":3,"byteOffset":37584,"componentType":5126,"count":104,"type":"VEC2","name":"accessorUVs"},{"bufferView":0,"byteOffset":24708,"componentType":5123,"count":240,"type":"SCALAR","name":"accessorIndices"},{"bufferView":1,"byteOffset":115248,"componentType":5126,"count":131,"max":[0.03985784,-0.0084850695,0.180650711],"min":[-0.0398694165,-0.3712494,-0.0124337766],"type":"VEC3","name":"accessorPositions"},{"bufferView":2,"byteOffset":76832,"componentType":5126,"count":131,"type":"VEC4","name":"accessorTangents"},{"bufferView":1,"byteOffset":116820,"componentType":5126,"count":131,"type":"VEC3","name":"accessorNormals"},{"bufferView":3,"byteOffset":38416,"componentType":5126,"count":131,"type":"VEC2","name":"accessorUVs"},{"bufferView":0,"byteOffset":25188,"componentType":5123,"count":300,"type":"SCALAR","name":"accessorIndices"},{"bufferView":1,"byteOffset":118392,"componentType":5126,"count":125,"max":[0.07851814,0.351821363,0.09929123],"min":[-0.07852389,-0.0476223379,-0.17065528],"type":"VEC3","name":"accessorPositions"},{"bufferView":2,"byteOffset":78928,"componentType":5126,"count":125,"type":"VEC4","name":"accessorTangents"},{"bufferView":1,"byteOffset":119892,"componentType":5126,"count":125,"type":"VEC3","name":"accessorNormals"},{"bufferView":3,"byteOffset":39464,"componentType":5126,"count":125,"type":"VEC2","name":"accessorUVs"},{"bufferView":0,"byteOffset":25788,"componentType":5123,"count":432,"type":"SCALAR","name":"accessorIndices"},{"bufferView":1,"byteOffset":121392,"componentType":5126,"count":104,"max":[0.101382308,-0.317830831,0.233645245],"min":[-0.09394077,-0.415492356,0.0383221433],"type":"VEC3","name":"accessorPositions"},{"bufferView":2,"byteOffset":80928,"componentType":5126,"count":104,"type":"VEC4","name":"accessorTangents"},{"bufferView":1,"byteOffset":122640,"componentType":5126,"count":104,"type":"VEC3","name":"accessorNormals"},{"bufferView":3,"byteOffset":40464,"componentType":5126,"count":104,"type":"VEC2","name":"accessorUVs"},{"bufferView":0,"byteOffset":26652,"componentType":5123,"count":240,"type":"SCALAR","name":"accessorIndices"},{"bufferView":1,"byteOffset":123888,"componentType":5126,"count":131,"max":[0.03985784,-0.0084850695,0.180650711],"min":[-0.0398694165,-0.3712494,-0.0124337766],"type":"VEC3","name":"accessorPositions"},{"bufferView":2,"byteOffset":82592,"componentType":5126,"count":131,"type":"VEC4","name":"accessorTangents"},{"bufferView":1,"byteOffset":125460,"componentType":5126,"count":131,"type":"VEC3","name":"accessorNormals"},{"bufferView":3,"byteOffset":41296,"componentType":5126,"count":131,"type":"VEC2","name":"accessorUVs"},{"bufferView":0,"byteOffset":27132,"componentType":5123,"count":300,"type":"SCALAR","name":"accessorIndices"},{"bufferView":1,"byteOffset":127032,"componentType":5126,"count":125,"max":[0.07851814,0.351821363,0.09929123],"min":[-0.07852389,-0.0476223379,-0.17065528],"type":"VEC3","name":"accessorPositions"},{"bufferView":2,"byteOffset":84688,"componentType":5126,"count":125,"type":"VEC4","name":"accessorTangents"},{"bufferView":1,"byteOffset":128532,"componentType":5126,"count":125,"type":"VEC3","name":"accessorNormals"},{"bufferView":3,"byteOffset":42344,"componentType":5126,"count":125,"type":"VEC2","name":"accessorUVs"},{"bufferView":0,"byteOffset":27732,"componentType":5123,"count":432,"type":"SCALAR","name":"accessorIndices"},{"bufferView":1,"byteOffset":130032,"componentType":5126,"count":104,"max":[0.101382308,-0.317830831,0.233645245],"min":[-0.09394077,-0.415492356,0.0383221433],"type":"VEC3","name":"accessorPositions"},{"bufferView":2,"byteOffset":86688,"componentType":5126,"count":104,"type":"VEC4","name":"accessorTangents"},{"bufferView":1,"byteOffset":131280,"componentType":5126,"count":104,"type":"VEC3","name":"accessorNormals"},{"bufferView":3,"byteOffset":43344,"componentType":5126,"count":104,"type":"VEC2","name":"accessorUVs"},{"bufferView":0,"byteOffset":28596,"componentType":5123,"count":240,"type":"SCALAR","name":"accessorIndices"},{"bufferView":1,"byteOffset":132528,"componentType":5126,"count":131,"max":[0.03985784,-0.0084850695,0.180650711],"min":[-0.0398694165,-0.3712494,-0.0124337766],"type":"VEC3","name":"accessorPositions"},{"bufferView":2,"byteOffset":88352,"componentType":5126,"count":131,"type":"VEC4","name":"accessorTangents"},{"bufferView":1,"byteOffset":134100,"componentType":5126,"count":131,"type":"VEC3","name":"accessorNormals"},{"bufferView":3,"byteOffset":44176,"componentType":5126,"count":131,"type":"VEC2","name":"accessorUVs"},{"bufferView":0,"byteOffset":29076,"componentType":5123,"count":300,"type":"SCALAR","name":"accessorIndices"},{"bufferView":1,"byteOffset":135672,"componentType":5126,"count":125,"max":[0.07851814,0.351821363,0.09929123],"min":[-0.07852389,-0.0476223379,-0.17065528],"type":"VEC3","name":"accessorPositions"},{"bufferView":2,"byteOffset":90448,"componentType":5126,"count":125,"type":"VEC4","name":"accessorTangents"},{"bufferView":1,"byteOffset":137172,"componentType":5126,"count":125,"type":"VEC3","name":"accessorNormals"},{"bufferView":3,"byteOffset":45224,"componentType":5126,"count":125,"type":"VEC2","name":"accessorUVs"},{"bufferView":0,"byteOffset":29676,"componentType":5123,"count":432,"type":"SCALAR","name":"accessorIndices"},{"bufferView":1,"byteOffset":138672,"componentType":5126,"count":104,"max":[0.095044516,0.09535648,0.101382293],"min":[-0.005924645,-0.09985057,-0.09394077],"type":"VEC3","name":"accessorPositions"},{"bufferView":2,"byteOffset":92448,"componentType":5126,"count":104,"type":"VEC4","name":"accessorTangents"},{"bufferView":1,"byteOffset":139920,"componentType":5126,"count":104,"type":"VEC3","name":"accessorNormals"},{"bufferView":3,"byteOffset":46224,"componentType":5126,"count":104,"type":"VEC2","name":"accessorUVs"},{"bufferView":0,"byteOffset":30540,"componentType":5123,"count":240,"type":"SCALAR","name":"accessorIndices"},{"bufferView":1,"byteOffset":141168,"componentType":5126,"count":131,"max":[0.355853945,0.0383089073,0.03986942],"min":[-0.00155777461,-0.04583061,-0.03985784],"type":"VEC3","name":"accessorPositions"},{"bufferView":2,"byteOffset":94112,"componentType":5126,"count":131,"type":"VEC4","name":"accessorTangents"},{"bufferView":1,"byteOffset":142740,"componentType":5126,"count":131,"type":"VEC3","name":"accessorNormals"},{"bufferView":3,"byteOffset":47056,"componentType":5126,"count":131,"type":"VEC2","name":"accessorUVs"},{"bufferView":0,"byteOffset":31020,"componentType":5123,"count":300,"type":"SCALAR","name":"accessorIndices"},{"bufferView":1,"byteOffset":144312,"componentType":5126,"count":125,"max":[0.36325258,0.07721863,0.07852392],"min":[-0.005090446,-0.08008205,-0.07851816],"type":"VEC3","name":"accessorPositions"},{"bufferView":2,"byteOffset":96208,"componentType":5126,"count":125,"type":"VEC4","name":"accessorTangents"},{"bufferView":1,"byteOffset":145812,"componentType":5126,"count":125,"type":"VEC3","name":"accessorNormals"},{"bufferView":3,"byteOffset":48104,"componentType":5126,"count":125,"type":"VEC2","name":"accessorUVs"},{"bufferView":4,"componentType":5126,"count":2,"max":[8.291667],"min":[0.0],"type":"SCALAR","name":"accessorAnimationInput"},{"bufferView":5,"componentType":5126,"count":2,"type":"VEC4","name":"accessorAnimationRotations"},{"bufferView":4,"byteOffset":8,"componentType":5126,"count":2,"max":[8.291667],"min":[0.0],"type":"SCALAR","name":"accessorAnimationInput"},{"bufferView":6,"componentType":5126,"count":2,"type":"VEC3","name":"accessorAnimationPositions"},{"bufferView":4,"byteOffset":16,"componentType":5126,"count":2,"max":[8.291667],"min":[0.0],"type":"SCALAR","name":"accessorAnimationInput"},{"bufferView":5,"byteOffset":32,"componentType":5126,"count":2,"type":"VEC4","name":"accessorAnimationRotations"},{"bufferView":4,"byteOffset":24,"componentType":5126,"count":6,"max":[8.291667],"min":[0.0],"type":"SCALAR","name":"accessorAnimationInput"},{"bufferView":6,"byteOffset":24,"componentType":5126,"count":6,"type":"VEC3","name":"accessorAnimationPositions"},{"bufferView":4,"byteOffset":48,"componentType":5126,"count":2,"max":[8.291667],"min":[0.0],"type":"SCALAR","name":"accessorAnimationInput"},{"bufferView":5,"byteOffset":64,"componentType":5126,"count":2,"type":"VEC4","name":"accessorAnimationRotations"},{"bufferView":4,"byteOffset":56,"componentType":5126,"count":12,"max":[8.291667],"min":[0.0],"type":"SCALAR","name":"accessorAnimationInput"},{"bufferView":6,"byteOffset":96,"componentType":5126,"count":12,"type":"VEC3","name":"accessorAnimationPositions"},{"bufferView":4,"byteOffset":104,"componentType":5126,"count":2,"max":[8.291667],"min":[0.0],"type":"SCALAR","name":"accessorAnimationInput"},{"bufferView":5,"byteOffset":96,"componentType":5126,"count":2,"type":"VEC4","name":"accessorAnimationRotations"},{"bufferView":4,"byteOffset":112,"componentType":5126,"count":2,"max":[8.291667],"min":[0.0],"type":"SCALAR","name":"accessorAnimationInput"},{"bufferView":6,"byteOffset":240,"componentType":5126,"count":2,"type":"VEC3","name":"accessorAnimationPositions"},{"bufferView":4,"byteOffset":120,"componentType":5126,"count":2,"max":[8.291667],"min":[0.0],"type":"SCALAR","name":"accessorAnimationInput"},{"bufferView":5,"byteOffset":128,"componentType":5126,"count":2,"type":"VEC4","name":"accessorAnimationRotations"},{"bufferView":4,"byteOffset":128,"componentType":5126,"count":6,"max":[8.291667],"min":[0.0],"type":"SCALAR","name":"accessorAnimationInput"},{"bufferView":6,"byteOffset":264,"componentType":5126,"count":6,"type":"VEC3","name":"accessorAnimationPositions"},{"bufferView":4,"byteOffset":152,"componentType":5126,"count":2,"max":[8.291667],"min":[0.0],"type":"SCALAR","name":"accessorAnimationInput"},{"bufferView":5,"byteOffset":160,"componentType":5126,"count":2,"type":"VEC4","name":"accessorAnimationRotations"},{"bufferView":4,"byteOffset":160,"componentType":5126,"count":12,"max":[8.291667],"min":[0.0],"type":"SCALAR","name":"accessorAnimationInput"},{"bufferView":6,"byteOffset":336,"componentType":5126,"count":12,"type":"VEC3","name":"accessorAnimationPositions"},{"bufferView":4,"byteOffset":208,"componentType":5126,"count":2,"max":[8.291667],"min":[0.0],"type":"SCALAR","name":"accessorAnimationInput"},{"bufferView":5,"byteOffset":192,"componentType":5126,"count":2,"type":"VEC4","name":"accessorAnimationRotations"},{"bufferView":4,"byteOffset":216,"componentType":5126,"count":2,"max":[8.291667],"min":[0.0],"type":"SCALAR","name":"accessorAnimationInput"},{"bufferView":6,"byteOffset":480,"componentType":5126,"count":2,"type":"VEC3","name":"accessorAnimationPositions"},{"bufferView":4,"byteOffset":224,"componentType":5126,"count":2,"max":[8.291667],"min":[0.0],"type":"SCALAR","name":"accessorAnimationInput"},{"bufferView":5,"byteOffset":224,"componentType":5126,"count":2,"type":"VEC4","name":"accessorAnimationRotations"},{"bufferView":4,"byteOffset":232,"componentType":5126,"count":6,"max":[8.291667],"min":[0.0],"type":"SCALAR","name":"accessorAnimationInput"},{"bufferView":6,"byteOffset":504,"componentType":5126,"count":6,"type":"VEC3","name":"accessorAnimationPositions"},{"bufferView":4,"byteOffset":256,"componentType":5126,"count":2,"max":[8.291667],"min":[0.0],"type":"SCALAR","name":"accessorAnimationInput"},{"bufferView":5,"byteOffset":256,"componentType":5126,"count":2,"type":"VEC4","name":"accessorAnimationRotations"},{"bufferView":4,"byteOffset":264,"componentType":5126,"count":12,"max":[8.291667],"min":[0.0],"type":"SCALAR","name":"accessorAnimationInput"},{"bufferView":6,"byteOffset":576,"componentType":5126,"count":12,"type":"VEC3","name":"accessorAnimationPositions"},{"bufferView":4,"byteOffset":312,"componentType":5126,"count":2,"max":[8.291667],"min":[0.0],"type":"SCALAR","name":"accessorAnimationInput"},{"bufferView":5,"byteOffset":288,"componentType":5126,"count":2,"type":"VEC4","name":"accessorAnimationRotations"},{"bufferView":4,"byteOffset":320,"componentType":5126,"count":2,"max":[8.291667],"min":[0.0],"type":"SCALAR","name":"accessorAnimationInput"},{"bufferView":6,"byteOffset":720,"componentType":5126,"count":2,"type":"VEC3","name":"accessorAnimationPositions"},{"bufferView":4,"byteOffset":328,"componentType":5126,"count":2,"max":[8.291667],"min":[0.0],"type":"SCALAR","name":"accessorAnimationInput"},{"bufferView":5,"byteOffset":320,"componentType":5126,"count":2,"type":"VEC4","name":"accessorAnimationRotations"},{"bufferView":4,"byteOffset":336,"componentType":5126,"count":6,"max":[8.291667],"min":[0.0],"type":"SCALAR","name":"accessorAnimationInput"},{"bufferView":6,"byteOffset":744,"componentType":5126,"count":6,"type":"VEC3","name":"accessorAnimationPositions"},{"bufferView":4,"byteOffset":360,"componentType":5126,"count":2,"max":[8.291667],"min":[0.0],"type":"SCALAR","name":"accessorAnimationInput"},{"bufferView":5,"byteOffset":352,"componentType":5126,"count":2,"type":"VEC4","name":"accessorAnimationRotations"},{"bufferView":4,"byteOffset":368,"componentType":5126,"count":12,"max":[8.291667],"min":[0.0],"type":"SCALAR","name":"accessorAnimationInput"},{"bufferView":6,"byteOffset":816,"componentType":5126,"count":12,"type":"VEC3","name":"accessorAnimationPositions"},{"bufferView":4,"byteOffset":416,"componentType":5126,"count":2,"max":[8.291667],"min":[0.0],"type":"SCALAR","name":"accessorAnimationInput"},{"bufferView":5,"byteOffset":384,"componentType":5126,"count":2,"type":"VEC4","name":"accessorAnimationRotations"},{"bufferView":4,"byteOffset":424,"componentType":5126,"count":2,"max":[8.291667],"min":[0.0],"type":"SCALAR","name":"accessorAnimationInput"},{"bufferView":6,"byteOffset":960,"componentType":5126,"count":2,"type":"VEC3","name":"accessorAnimationPositions"}],"bufferViews":[{"buffer":0,"byteLength":31620,"name":"bufferViewScalar"},{"buffer":0,"byteOffset":31620,"byteLength":147312,"byteStride":12,"name":"bufferViewFloatVec3"},{"buffer":0,"byteOffset":178932,"byteLength":98208,"byteStride":16,"name":"bufferViewFloatVec4"},{"buffer":0,"byteOffset":277140,"byteLength":49104,"byteStride":8,"name":"bufferViewFloatVec2"},{"buffer":0,"byteOffset":326244,"byteLength":432,"name":"bufferViewAnimationFloatScalar"},{"buffer":0,"byteOffset":326676,"byteLength":416,"name":"bufferViewAnimationFloatVec4"},{"buffer":0,"byteOffset":327092,"byteLength":984,"name":"bufferViewAnimationFloatVec3"}],"buffers":[{"uri":"ovni.bin","byteLength":328076}],"materials":[{"pbrMetallicRoughness":{"baseColorTexture":{"index":1},"metallicFactor":0.0,"metallicRoughnessTexture":{"index":2}},"emissiveTexture":{"index":0,"scale":0.0},"emissiveFactor":[1.0,1.0,1.0],"name":"BodyM"},{"pbrMetallicRoughness":{"baseColorTexture":{"index":3},"metallicFactor":0.0,"roughnessFactor":0.33},"name":"PanelM"}],"textures":[{"sampler":0,"source":0,"name":"OvniBase_Body_Emissive.png"},{"sampler":0,"source":1,"name":"OvniBase_Body_BaseColor.png"},{"sampler":0,"source":2,"name":"file250.jpg"},{"sampler":0,"source":3,"name":"OvniBase_Panel_BaseColor.png"}],"images":[{"uri":"OvniBase_Body_Emissive.png"},{"uri":"OvniBase_Body_BaseColor.png"},{"uri":"file250.jpg"},{"uri":"OvniBase_Panel_BaseColor.png"}],"samplers":[{"magFilter":9729,"minFilter":9987}],"animations":[{"channels":[{"sampler":0,"target":{"node":1,"path":"rotation"}},{"sampler":1,"target":{"node":1,"path":"translation"}},{"sampler":2,"target":{"node":4,"path":"rotation"}},{"sampler":3,"target":{"node":4,"path":"translation"}},{"sampler":4,"target":{"node":5,"path":"rotation"}},{"sampler":5,"target":{"node":5,"path":"translation"}},{"sampler":6,"target":{"node":6,"path":"rotation"}},{"sampler":7,"target":{"node":6,"path":"translation"}},{"sampler":8,"target":{"node":11,"path":"rotation"}},{"sampler":9,"target":{"node":11,"path":"translation"}},{"sampler":10,"target":{"node":12,"path":"rotation"}},{"sampler":11,"target":{"node":12,"path":"translation"}},{"sampler":12,"target":{"node":13,"path":"rotation"}},{"sampler":13,"target":{"node":13,"path":"translation"}},{"sampler":14,"target":{"node":18,"path":"rotation"}},{"sampler":15,"target":{"node":18,"path":"translation"}},{"sampler":16,"target":{"node":19,"path":"rotation"}},{"sampler":17,"target":{"node":19,"path":"translation"}},{"sampler":18,"target":{"node":20,"path":"rotation"}},{"sampler":19,"target":{"node":20,"path":"translation"}},{"sampler":20,"target":{"node":25,"path":"rotation"}},{"sampler":21,"target":{"node":25,"path":"translation"}},{"sampler":22,"target":{"node":26,"path":"rotation"}},{"sampler":23,"target":{"node":26,"path":"translation"}},{"sampler":24,"target":{"node":27,"path":"rotation"}},{"sampler":25,"target":{"node":27,"path":"translation"}}],"samplers":[{"input":70,"output":71},{"input":72,"output":73},{"input":74,"output":75},{"input":76,"output":77},{"input":78,"output":79},{"input":80,"output":81},{"input":82,"output":83},{"input":84,"output":85},{"input":86,"output":87},{"input":88,"output":89},{"input":90,"output":91},{"input":92,"output":93},{"input":94,"output":95},{"input":96,"output":97},{"input":98,"output":99},{"input":100,"output":101},{"input":102,"output":103},{"input":104,"output":105},{"input":106,"output":107},{"input":108,"output":109},{"input":110,"output":111},{"input":112,"output":113},{"input":114,"output":115},{"input":116,"output":117},{"input":118,"output":119},{"input":120,"output":121}],"name":"All Animations"}]}