{"asset":{"version":"2.0","generator":"babylon.js glTF exporter for Autodesk Maya 2020.4 v20230922.2"},"scene":0,"scenes":[{"nodes":[0]}],"nodes":[{"children":[1,2,3,10,17,24],"translation":[0.0,-0.7841125,-0.00486001559],"rotation":[-0.4993185,-0.500680566,0.4993185,0.500680566],"name":"Main"},{"mesh":0,"translation":[1.73616052,-0.000130641565,2.90082547E-20],"rotation":[0.4993185,0.500680566,-0.4993185,0.500680566],"scale":[0.2670007,0.2670007,0.2670007],"name":"Head"},{"mesh":1,"translation":[0.7841228,-0.00272404216,6.80361E-19],"rotation":[0.4993185,0.500680566,-0.4993185,0.500680566],"name":"Body"},{"children":[4],"translation":[0.7841228,-0.00272404216,6.04858866E-19],"rotation":[0.4993185,0.500680566,-0.4993185,0.500680566],"name":"LegRig"},{"children":[5,9],"translation":[-0.74863553,0.05865917,0.244826257],"rotation":[0.5767664,-0.803140461,-0.08711812,0.121310964],"name":"Leg"},{"children":[6,8],"translation":[0.0325201973,-0.003777681,2.898481E-06],"rotation":[-0.0307701137,0.0111233369,0.0216640234,0.9992298],"name":"joint4"},{"children":[7],"translation":[0.2634956,1.42108544E-16,-9.76996256E-17],"rotation":[0.155261248,-0.050319992,-0.0543748848,0.985091448],"name":"joint5"},{"mesh":2,"name":"Foot"},{"mesh":3,"name":"Leg_2"},{"mesh":4,"name":"Leg (1)"},{"children":[11],"translation":[0.7841228,-0.00272404216,6.04858866E-19],"rotation":[-0.629178047,-0.6308943,-0.320582241,0.3214567],"name":"LegRig4"},{"children":[12,16],"translation":[-0.74863553,0.05865917,0.244826257],"rotation":[0.5767664,-0.803140461,-0.08711812,0.121310964],"name":"Leg (2)"},{"children":[13,15],"translation":[0.0325201973,-0.003777681,2.898481E-06],"rotation":[-0.0307701137,0.0111233369,0.0216640234,0.9992298],"name":"joint4 (1)"},{"children":[14],"translation":[0.2634956,1.42108544E-16,-9.76996256E-17],"rotation":[0.155261248,-0.050319992,-0.0543748848,0.985091448],"name":"joint5 (1)"},{"mesh":5,"name":"Foot (1)"},{"mesh":6,"name":"Leg_2 (1)"},{"mesh":7,"name":"Leg (3)"},{"children":[18],"translation":[0.7841228,-0.00272404216,6.04858866E-19],"rotation":[-0.320582241,-0.3214567,-0.629178047,0.6308943],"name":"LegRig6"},{"children":[19,23],"translation":[-0.74863553,0.05865917,0.244826257],"rotation":[0.5767664,-0.803140461,-0.08711812,0.121310964],"name":"Leg (4)"},{"children":[20,22],"translation":[0.0325201973,-0.003777681,2.898481E-06],"rotation":[-0.0307701137,0.0111233369,0.0216640234,0.9992298],"name":"joint4 (2)"},{"children":[21],"translation":[0.2634956,1.42108544E-16,-9.76996256E-17],"rotation":[0.155261248,-0.050319992,-0.0543748848,0.985091448],"name":"joint5 (2)"},{"mesh":8,"name":"Foot (2)"},{"mesh":9,"name":"Leg_2 (2)"},{"mesh":10,"name":"Leg (5)"},{"children":[25],"translation":[0.7841228,-0.00272404216,6.04858866E-19],"rotation":[0.110465109,0.110766433,-0.697449267,0.6993517],"name":"LegRig8"},{"children":[26,30],"translation":[-0.74863553,0.05865917,0.244826257],"rotation":[0.5767664,-0.803140461,-0.08711812,0.121310964],"name":"Leg (6)"},{"children":[27,29],"translation":[0.0325201973,-0.003777681,2.898481E-06],"rotation":[-0.0307701137,0.0111233369,0.0216640234,0.9992298],"name":"joint4 (3)"},{"children":[28],"translation":[0.2634956,1.42108544E-16,-9.76996256E-17],"rotation":[0.155261248,-0.050319992,-0.0543748848,0.985091448],"name":"joint5 (3)"},{"mesh":11,"name":"Foot (3)"},{"mesh":12,"name":"Leg_2 (3)"},{"mesh":13,"name":"Leg (7)"}],"meshes":[{"primitives":[{"attributes":{"POSITION":1,"TANGENT":2,"NORMAL":3,"TEXCOORD_0":4},"indices":0,"material":0},{"attributes":{"POSITION":6,"TANGENT":7,"NORMAL":8,"TEXCOORD_0":9},"indices":5,"material":1}],"name":"Head"},{"primitives":[{"attributes":{"POSITION":11,"TANGENT":12,"NORMAL":13,"TEXCOORD_0":14},"indices":10,"material":2},{"attributes":{"POSITION":16,"TANGENT":17,"NORMAL":18,"TEXCOORD_0":19},"indices":15,"material":3}],"name":"Body"},{"primitives":[{"attributes":{"POSITION":21,"TANGENT":22,"NORMAL":23,"TEXCOORD_0":24},"indices":20}],"name":"Foot"},{"primitives":[{"attributes":{"POSITION":26,"TANGENT":27,"NORMAL":28,"TEXCOORD_0":29},"indices":25}],"name":"Leg_2"},{"primitives":[{"attributes":{"POSITION":31,"TANGENT":32,"NORMAL":33,"TEXCOORD_0":34},"indices":30}],"name":"Leg"},{"primitives":[{"attributes":{"POSITION":36,"TANGENT":37,"NORMAL":38,"TEXCOORD_0":39},"indices":35,"material":2}],"name":"Foot"},{"primitives":[{"attributes":{"POSITION":41,"TANGENT":42,"NORMAL":43,"TEXCOORD_0":44},"indices":40,"material":2}],"name":"Leg_2"},{"primitives":[{"attributes":{"POSITION":46,"TANGENT":47,"NORMAL":48,"TEXCOORD_0":49},"indices":45,"material":2}],"name":"Leg"},{"primitives":[{"attributes":{"POSITION":51,"TANGENT":52,"NORMAL":53,"TEXCOORD_0":54},"indices":50,"material":2}],"name":"Foot"},{"primitives":[{"attributes":{"POSITION":56,"TANGENT":57,"NORMAL":58,"TEXCOORD_0":59},"indices":55,"material":2}],"name":"Leg_2"},{"primitives":[{"attributes":{"POSITION":61,"TANGENT":62,"NORMAL":63,"TEXCOORD_0":64},"indices":60,"material":2}],"name":"Leg"},{"primitives":[{"attributes":{"POSITION":66,"TANGENT":67,"NORMAL":68,"TEXCOORD_0":69},"indices":65,"material":2}],"name":"Foot"},{"primitives":[{"attributes":{"POSITION":71,"TANGENT":72,"NORMAL":73,"TEXCOORD_0":74},"indices":70,"material":2}],"name":"Leg_2"},{"primitives":[{"attributes":{"POSITION":76,"TANGENT":77,"NORMAL":78,"TEXCOORD_0":79},"indices":75,"material":2}],"name":"Leg"}],"accessors":[{"bufferView":0,"componentType":5123,"count":2268,"type":"SCALAR","name":"accessorIndices"},{"bufferView":1,"componentType":5126,"count":439,"max":[1.0,1.0,1.00000012],"min":[-1.00000024,-1.0,-1.00000048],"type":"VEC3","name":"accessorPositions"},{"bufferView":2,"componentType":5126,"count":439,"type":"VEC4","name":"accessorTangents"},{"bufferView":1,"byteOffset":5268,"componentType":5126,"count":439,"type":"VEC3","name":"accessorNormals"},{"bufferView":3,"componentType":5126,"count":439,"type":"VEC2","name":"accessorUVs"},{"bufferView":0,"byteOffset":4536,"componentType":5123,"count":12,"type":"SCALAR","name":"accessorIndices"},{"bufferView":1,"byteOffset":10536,"componentType":5126,"count":26,"max":[0.987688363,0.309016973,0.9876885],"min":[-0.9510567,0.156434372,-0.951056957],"type":"VEC3","name":"accessorPositions"},{"bufferView":2,"byteOffset":7024,"componentType":5126,"count":26,"type":"VEC4","name":"accessorTangents"},{"bufferView":1,"byteOffset":10848,"componentType":5126,"count":26,"type":"VEC3","name":"accessorNormals"},{"bufferView":3,"byteOffset":3512,"componentType":5126,"count":26,"type":"VEC2","name":"accessorUVs"},{"bufferView":0,"byteOffset":4560,"componentType":5123,"count":8622,"type":"SCALAR","name":"accessorIndices"},{"bufferView":1,"byteOffset":11160,"componentType":5126,"count":3131,"max":[1.39414847,0.427532673,1.39463115],"min":[-1.39414847,-0.4774495,-1.39463115],"type":"VEC3","name":"accessorPositions"},{"bufferView":2,"byteOffset":7440,"componentType":5126,"count":3131,"type":"VEC4","name":"accessorTangents"},{"bufferView":1,"byteOffset":48732,"componentType":5126,"count":3131,"type":"VEC3","name":"accessorNormals"},{"bufferView":3,"byteOffset":3720,"componentType":5126,"count":3131,"type":"VEC2","name":"accessorUVs"},{"bufferView":0,"byteOffset":21804,"componentType":5123,"count":120,"type":"SCALAR","name":"accessorIndices"},{"bufferView":1,"byteOffset":86304,"componentType":5126,"count":42,"max":[0.889721751,0.289385527,0.8897218],"min":[-0.8897219,0.134941816,-0.889722049],"type":"VEC3","name":"accessorPositions"},{"bufferView":2,"byteOffset":57536,"componentType":5126,"count":42,"type":"VEC4","name":"accessorTangents"},{"bufferView":1,"byteOffset":86808,"componentType":5126,"count":42,"type":"VEC3","name":"accessorNormals"},{"bufferView":3,"byteOffset":28768,"componentType":5126,"count":42,"type":"VEC2","name":"accessorUVs"},{"bufferView":0,"byteOffset":22044,"componentType":5123,"count":432,"type":"SCALAR","name":"accessorIndices"},{"bufferView":1,"byteOffset":87312,"componentType":5126,"count":104,"max":[0.118520617,0.06962456,0.09435035],"min":[-0.00301975245,-0.116165005,-0.09435035],"type":"VEC3","name":"accessorPositions"},{"bufferView":2,"byteOffset":58208,"componentType":5126,"count":104,"type":"VEC4","name":"accessorTangents"},{"bufferView":1,"byteOffset":88560,"componentType":5126,"count":104,"type":"VEC3","name":"accessorNormals"},{"bufferView":3,"byteOffset":29104,"componentType":5126,"count":104,"type":"VEC2","name":"accessorUVs"},{"bufferView":0,"byteOffset":22908,"componentType":5123,"count":240,"type":"SCALAR","name":"accessorIndices"},{"bufferView":1,"byteOffset":89808,"componentType":5126,"count":129,"max":[0.357729346,0.03976715,0.0474853739],"min":[-0.00154809945,-0.0512709022,-0.03977693],"type":"VEC3","name":"accessorPositions"},{"bufferView":2,"byteOffset":59872,"componentType":5126,"count":129,"type":"VEC4","name":"accessorTangents"},{"bufferView":1,"byteOffset":91356,"componentType":5126,"count":129,"type":"VEC3","name":"accessorNormals"},{"bufferView":3,"byteOffset":29936,"componentType":5126,"count":129,"type":"VEC2","name":"accessorUVs"},{"bufferView":0,"byteOffset":23388,"componentType":5123,"count":300,"type":"SCALAR","name":"accessorIndices"},{"bufferView":1,"byteOffset":92904,"componentType":5126,"count":125,"max":[0.369127959,0.0828359947,0.07852085],"min":[-0.0009218025,-0.07851387,-0.07851953],"type":"VEC3","name":"accessorPositions"},{"bufferView":2,"byteOffset":61936,"componentType":5126,"count":125,"type":"VEC4","name":"accessorTangents"},{"bufferView":1,"byteOffset":94404,"componentType":5126,"count":125,"type":"VEC3","name":"accessorNormals"},{"bufferView":3,"byteOffset":30968,"componentType":5126,"count":125,"type":"VEC2","name":"accessorUVs"},{"bufferView":0,"byteOffset":23988,"componentType":5123,"count":432,"type":"SCALAR","name":"accessorIndices"},{"bufferView":1,"byteOffset":95904,"componentType":5126,"count":104,"max":[0.118520617,0.06962456,0.09435035],"min":[-0.00301975245,-0.116165005,-0.09435035],"type":"VEC3","name":"accessorPositions"},{"bufferView":2,"byteOffset":63936,"componentType":5126,"count":104,"type":"VEC4","name":"accessorTangents"},{"bufferView":1,"byteOffset":97152,"componentType":5126,"count":104,"type":"VEC3","name":"accessorNormals"},{"bufferView":3,"byteOffset":31968,"componentType":5126,"count":104,"type":"VEC2","name":"accessorUVs"},{"bufferView":0,"byteOffset":24852,"componentType":5123,"count":240,"type":"SCALAR","name":"accessorIndices"},{"bufferView":1,"byteOffset":98400,"componentType":5126,"count":129,"max":[0.357729346,0.03976715,0.0474853739],"min":[-0.00154809945,-0.0512709022,-0.03977693],"type":"VEC3","name":"accessorPositions"},{"bufferView":2,"byteOffset":65600,"componentType":5126,"count":129,"type":"VEC4","name":"accessorTangents"},{"bufferView":1,"byteOffset":99948,"componentType":5126,"count":129,"type":"VEC3","name":"accessorNormals"},{"bufferView":3,"byteOffset":32800,"componentType":5126,"count":129,"type":"VEC2","name":"accessorUVs"},{"bufferView":0,"byteOffset":25332,"componentType":5123,"count":300,"type":"SCALAR","name":"accessorIndices"},{"bufferView":1,"byteOffset":101496,"componentType":5126,"count":125,"max":[0.369127959,0.0828359947,0.07852085],"min":[-0.0009218025,-0.07851387,-0.07851953],"type":"VEC3","name":"accessorPositions"},{"bufferView":2,"byteOffset":67664,"componentType":5126,"count":125,"type":"VEC4","name":"accessorTangents"},{"bufferView":1,"byteOffset":102996,"componentType":5126,"count":125,"type":"VEC3","name":"accessorNormals"},{"bufferView":3,"byteOffset":33832,"componentType":5126,"count":125,"type":"VEC2","name":"accessorUVs"},{"bufferView":0,"byteOffset":25932,"componentType":5123,"count":432,"type":"SCALAR","name":"accessorIndices"},{"bufferView":1,"byteOffset":104496,"componentType":5126,"count":104,"max":[0.118520617,0.06962456,0.09435035],"min":[-0.00301975245,-0.116165005,-0.09435035],"type":"VEC3","name":"accessorPositions"},{"bufferView":2,"byteOffset":69664,"componentType":5126,"count":104,"type":"VEC4","name":"accessorTangents"},{"bufferView":1,"byteOffset":105744,"componentType":5126,"count":104,"type":"VEC3","name":"accessorNormals"},{"bufferView":3,"byteOffset":34832,"componentType":5126,"count":104,"type":"VEC2","name":"accessorUVs"},{"bufferView":0,"byteOffset":26796,"componentType":5123,"count":240,"type":"SCALAR","name":"accessorIndices"},{"bufferView":1,"byteOffset":106992,"componentType":5126,"count":129,"max":[0.357729346,0.03976715,0.0474853739],"min":[-0.00154809945,-0.0512709022,-0.03977693],"type":"VEC3","name":"accessorPositions"},{"bufferView":2,"byteOffset":71328,"componentType":5126,"count":129,"type":"VEC4","name":"accessorTangents"},{"bufferView":1,"byteOffset":108540,"componentType":5126,"count":129,"type":"VEC3","name":"accessorNormals"},{"bufferView":3,"byteOffset":35664,"componentType":5126,"count":129,"type":"VEC2","name":"accessorUVs"},{"bufferView":0,"byteOffset":27276,"componentType":5123,"count":300,"type":"SCALAR","name":"accessorIndices"},{"bufferView":1,"byteOffset":110088,"componentType":5126,"count":125,"max":[0.369127959,0.0828359947,0.07852085],"min":[-0.0009218025,-0.07851387,-0.07851953],"type":"VEC3","name":"accessorPositions"},{"bufferView":2,"byteOffset":73392,"componentType":5126,"count":125,"type":"VEC4","name":"accessorTangents"},{"bufferView":1,"byteOffset":111588,"componentType":5126,"count":125,"type":"VEC3","name":"accessorNormals"},{"bufferView":3,"byteOffset":36696,"componentType":5126,"count":125,"type":"VEC2","name":"accessorUVs"},{"bufferView":0,"byteOffset":27876,"componentType":5123,"count":432,"type":"SCALAR","name":"accessorIndices"},{"bufferView":1,"byteOffset":113088,"componentType":5126,"count":104,"max":[0.118520617,0.06962456,0.09435035],"min":[-0.00301975245,-0.116165005,-0.09435035],"type":"VEC3","name":"accessorPositions"},{"bufferView":2,"byteOffset":75392,"componentType":5126,"count":104,"type":"VEC4","name":"accessorTangents"},{"bufferView":1,"byteOffset":114336,"componentType":5126,"count":104,"type":"VEC3","name":"accessorNormals"},{"bufferView":3,"byteOffset":37696,"componentType":5126,"count":104,"type":"VEC2","name":"accessorUVs"},{"bufferView":0,"byteOffset":28740,"componentType":5123,"count":240,"type":"SCALAR","name":"accessorIndices"},{"bufferView":1,"byteOffset":115584,"componentType":5126,"count":129,"max":[0.357729346,0.03976715,0.0474853739],"min":[-0.00154809945,-0.0512709022,-0.03977693],"type":"VEC3","name":"accessorPositions"},{"bufferView":2,"byteOffset":77056,"componentType":5126,"count":129,"type":"VEC4","name":"accessorTangents"},{"bufferView":1,"byteOffset":117132,"componentType":5126,"count":129,"type":"VEC3","name":"accessorNormals"},{"bufferView":3,"byteOffset":38528,"componentType":5126,"count":129,"type":"VEC2","name":"accessorUVs"},{"bufferView":0,"byteOffset":29220,"componentType":5123,"count":300,"type":"SCALAR","name":"accessorIndices"},{"bufferView":1,"byteOffset":118680,"componentType":5126,"count":125,"max":[0.369127959,0.0828359947,0.07852085],"min":[-0.0009218025,-0.07851387,-0.07851953],"type":"VEC3","name":"accessorPositions"},{"bufferView":2,"byteOffset":79120,"componentType":5126,"count":125,"type":"VEC4","name":"accessorTangents"},{"bufferView":1,"byteOffset":120180,"componentType":5126,"count":125,"type":"VEC3","name":"accessorNormals"},{"bufferView":3,"byteOffset":39560,"componentType":5126,"count":125,"type":"VEC2","name":"accessorUVs"},{"bufferView":4,"componentType":5126,"count":51,"max":[8.291667],"min":[0.0],"type":"SCALAR","name":"accessorAnimationInput"},{"bufferView":5,"componentType":5126,"count":51,"type":"VEC4","name":"accessorAnimationRotations"},{"bufferView":4,"byteOffset":204,"componentType":5126,"count":2,"max":[8.291667],"min":[0.0],"type":"SCALAR","name":"accessorAnimationInput"},{"bufferView":6,"componentType":5126,"count":2,"type":"VEC3","name":"accessorAnimationPositions"}],"bufferViews":[{"buffer":0,"byteLength":29820,"name":"bufferViewScalar"},{"buffer":0,"byteOffset":29820,"byteLength":121680,"byteStride":12,"name":"bufferViewFloatVec3"},{"buffer":0,"byteOffset":151500,"byteLength":81120,"byteStride":16,"name":"bufferViewFloatVec4"},{"buffer":0,"byteOffset":232620,"byteLength":40560,"byteStride":8,"name":"bufferViewFloatVec2"},{"buffer":0,"byteOffset":273180,"byteLength":212,"name":"bufferViewAnimationFloatScalar"},{"buffer":0,"byteOffset":273392,"byteLength":816,"name":"bufferViewAnimationFloatVec4"},{"buffer":0,"byteOffset":274208,"byteLength":24,"name":"bufferViewAnimationFloatVec3"}],"buffers":[{"uri":"ovni.bin","byteLength":274232}],"materials":[{"pbrMetallicRoughness":{"metallicFactor":0.0,"roughnessFactor":0.450053632},"name":"lambert1"},{"pbrMetallicRoughness":{"baseColorFactor":[0.5,0.5,0.5,1.0],"metallicFactor":0.0,"roughnessFactor":0.240331292},"name":"phongE9"},{"pbrMetallicRoughness":{"baseColorTexture":{"index":1},"metallicFactor":0.0,"metallicRoughnessTexture":{"index":2}},"emissiveTexture":{"index":0,"scale":0.0},"emissiveFactor":[1.0,1.0,1.0],"name":"BodyM"},{"pbrMetallicRoughness":{"baseColorTexture":{"index":3},"metallicFactor":0.0,"roughnessFactor":0.33},"name":"PanelM"}],"textures":[{"sampler":0,"source":0,"name":"OvniBase_Body_Emissive.png"},{"sampler":0,"source":1,"name":"OvniBase_Body_BaseColor.png"},{"sampler":0,"source":2,"name":"file250.jpg"},{"sampler":0,"source":3,"name":"OvniBase_Panel_BaseColor.png"}],"images":[{"uri":"OvniBase_Body_Emissive.png"},{"uri":"OvniBase_Body_BaseColor.png"},{"uri":"file250.jpg"},{"uri":"OvniBase_Panel_BaseColor.png"}],"samplers":[{"magFilter":9729,"minFilter":9987}],"animations":[{"channels":[{"sampler":0,"target":{"node":0,"path":"rotation"}},{"sampler":1,"target":{"node":0,"path":"translation"}}],"samplers":[{"input":80,"output":81},{"input":82,"output":83}],"name":"All Animations"}]}