{"asset":{"version":"2.0","generator":"babylon.js glTF exporter for Autodesk Maya 2020.4 v20230922.2"},"scene":0,"scenes":[{"nodes":[0]}],"nodes":[{"mesh":0,"name":"Ovni"}],"meshes":[{"primitives":[{"attributes":{"POSITION":1,"TANGENT":2,"NORMAL":3,"TEXCOORD_0":4},"indices":0,"material":0},{"attributes":{"POSITION":6,"TANGENT":7,"NORMAL":8,"TEXCOORD_0":9},"indices":5,"material":1},{"attributes":{"POSITION":11,"TANGENT":12,"NORMAL":13,"TEXCOORD_0":14},"indices":10,"material":2}],"name":"Ovni"}],"accessors":[{"bufferView":0,"componentType":5123,"count":13530,"type":"SCALAR","name":"accessorIndices"},{"bufferView":1,"componentType":5126,"count":4816,"max":[1.39414847,0.427532673,1.39463115],"min":[-1.39414847,-1.00639832,-1.39463115],"type":"VEC3","name":"accessorPositions"},{"bufferView":2,"componentType":5126,"count":4816,"type":"VEC4","name":"accessorTangents"},{"bufferView":1,"byteOffset":57792,"componentType":5126,"count":4816,"type":"VEC3","name":"accessorNormals"},{"bufferView":3,"componentType":5126,"count":4816,"type":"VEC2","name":"accessorUVs"},{"bufferView":0,"byteOffset":27060,"componentType":5123,"count":120,"type":"SCALAR","name":"accessorIndices"},{"bufferView":1,"byteOffset":115584,"componentType":5126,"count":42,"max":[0.889721751,0.289385527,0.8897218],"min":[-0.8897219,0.134941816,-0.889722049],"type":"VEC3","name":"accessorPositions"},{"bufferView":2,"byteOffset":77056,"componentType":5126,"count":42,"type":"VEC4","name":"accessorTangents"},{"bufferView":1,"byteOffset":116088,"componentType":5126,"count":42,"type":"VEC3","name":"accessorNormals"},{"bufferView":3,"byteOffset":38528,"componentType":5126,"count":42,"type":"VEC2","name":"accessorUVs"},{"bufferView":0,"byteOffset":27300,"componentType":5123,"count":1260,"type":"SCALAR","name":"accessorIndices"},{"bufferView":1,"byteOffset":116592,"componentType":5126,"count":250,"max":[0.9481038,1.4327476,0.9481039],"min":[-0.948104,0.336327881,-0.9481042],"type":"VEC3","name":"accessorPositions"},{"bufferView":2,"byteOffset":77728,"componentType":5126,"count":250,"type":"VEC4","name":"accessorTangents"},{"bufferView":1,"byteOffset":119592,"componentType":5126,"count":250,"type":"VEC3","name":"accessorNormals"},{"bufferView":3,"byteOffset":38864,"componentType":5126,"count":250,"type":"VEC2","name":"accessorUVs"}],"bufferViews":[{"buffer":0,"byteLength":29820,"name":"bufferViewScalar"},{"buffer":0,"byteOffset":29820,"byteLength":122592,"byteStride":12,"name":"bufferViewFloatVec3"},{"buffer":0,"byteOffset":152412,"byteLength":81728,"byteStride":16,"name":"bufferViewFloatVec4"},{"buffer":0,"byteOffset":234140,"byteLength":40864,"byteStride":8,"name":"bufferViewFloatVec2"}],"buffers":[{"uri":"ovni.bin","byteLength":275004}],"materials":[{"pbrMetallicRoughness":{"baseColorTexture":{"index":1},"metallicFactor":0.0,"metallicRoughnessTexture":{"index":2}},"emissiveTexture":{"index":0,"scale":0.0},"emissiveFactor":[1.0,1.0,1.0],"name":"BodyM"},{"pbrMetallicRoughness":{"baseColorTexture":{"index":3},"metallicFactor":0.0,"roughnessFactor":0.33},"name":"PanelM"},{"pbrMetallicRoughness":{"baseColorTexture":{"index":5},"metallicFactor":0.0},"emissiveTexture":{"index":4,"scale":0.0},"emissiveFactor":[1.0,1.0,1.0],"alphaMode":"BLEND","name":"GlassM","extras":{"use_opacity_map":{"resultType":5,"stringResult":""},"opacity":{"resultType":5,"stringResult":""}}}],"textures":[{"sampler":0,"source":0,"name":"OvniBase_Body_Emissive.png"},{"sampler":0,"source":1,"name":"OvniBase_Body_BaseColor.png"},{"sampler":0,"source":2,"name":"file250.jpg"},{"sampler":0,"source":3,"name":"OvniBase_Panel_BaseColor.png"},{"sampler":0,"source":4,"name":"OvniBase_Cristal_Emissive.png"},{"sampler":0,"source":5,"name":"OvniBase_Cristal_BaseColor.png"}],"images":[{"uri":"OvniBase_Body_Emissive.png"},{"uri":"OvniBase_Body_BaseColor.png"},{"uri":"file250.jpg"},{"uri":"OvniBase_Panel_BaseColor.png"},{"uri":"OvniBase_Cristal_Emissive.png"},{"uri":"OvniBase_Cristal_BaseColor.png"}],"samplers":[{"magFilter":9729,"minFilter":9987}]}