{
	"asset":{
		"generator":"Khronos glTF Blender I/O v3.5.30",
		"version":"2.0"
	},
	"extensionsUsed":[
		"KHR_materials_specular",
		"KHR_materials_ior"
	],
	"scene":0,
	"scenes":[
		{
			"name":"Scene",
			"nodes":[
				10
			]
		}
	],
	"nodes":[
		{
			"mesh":0,
			"name":"Cube",
			"rotation":[
				0,
				0,
				0.5805081725120544,
				0.8142544627189636
			],
			"scale":[
				1,
				1.3080389499664307,
				1
			],
			"translation":[
				0.7967220544815063,
				-1.5916543006896973,
				-1.2569772005081177
			]
		},
		{
			"mesh":1,
			"name":"Cube.001",
			"rotation":[
				-0.08457934856414795,
				0.13333280384540558,
				0.5381291508674622,
				0.8279406428337097
			],
			"scale":[
				1,
				1.3080390691757202,
				1
			],
			"translation":[
				1.300985336303711,
				3.8281404972076416,
				-1.8337647914886475
			]
		},
		{
			"mesh":2,
			"name":"Cube.002",
			"rotation":[
				-0.19340333342552185,
				0.18006199598312378,
				0.4530586302280426,
				0.8514168858528137
			],
			"scale":[
				1,
				1.3080390691757202,
				1
			],
			"translation":[
				2.2492306232452393,
				5.336184501647949,
				0.3418417274951935
			]
		},
		{
			"mesh":3,
			"name":"Cube.003",
			"rotation":[
				0.07056345790624619,
				0.12223141640424728,
				0.5031338930130005,
				0.8526057600975037
			],
			"scale":[
				1,
				1.3080390691757202,
				1
			],
			"translation":[
				-0.1288565993309021,
				0.25895631313323975,
				1.1163667440414429
			]
		},
		{
			"mesh":4,
			"name":"Cube.004",
			"rotation":[
				0.05556095764040947,
				0.0057287923991680145,
				0.4358353912830353,
				0.8982915282249451
			],
			"scale":[
				1,
				1.3080390691757202,
				1
			],
			"translation":[
				2.267984390258789,
				3.05397891998291,
				3.288177967071533
			]
		},
		{
			"mesh":5,
			"name":"Cube.005",
			"rotation":[
				0,
				0,
				0.5805081725120544,
				0.8142544627189636
			],
			"scale":[
				1,
				1.3080389499664307,
				1
			],
			"translation":[
				0.8823815584182739,
				1.2490251064300537,
				5.075671672821045
			]
		},
		{
			"mesh":6,
			"name":"Cube.006",
			"rotation":[
				0,
				0,
				0.5805081725120544,
				0.8142544627189636
			],
			"scale":[
				1,
				1.3080389499664307,
				1
			],
			"translation":[
				2.013091802597046,
				0.8566373586654663,
				-1.8995556831359863
			]
		},
		{
			"mesh":7,
			"name":"Cube.007",
			"rotation":[
				0,
				0,
				0.5805081725120544,
				0.8142544627189636
			],
			"scale":[
				1,
				1.3080389499664307,
				1
			],
			"translation":[
				0.8388782143592834,
				-1.0526150465011597,
				3.3992903232574463
			]
		},
		{
			"mesh":8,
			"name":"Cube.008",
			"rotation":[
				0,
				0,
				0.5805081725120544,
				0.8142544627189636
			],
			"scale":[
				1,
				1.3080389499664307,
				1
			],
			"translation":[
				0.12322453409433365,
				2.7889151573181152,
				1.0785295963287354
			]
		},
		{
			"mesh":9,
			"name":"Cube.009",
			"rotation":[
				-0.2280423790216446,
				-0.0527038536965847,
				0.7126264572143555,
				0.6613489985466003
			],
			"scale":[
				1,
				1.3080390691757202,
				1
			],
			"translation":[
				2.889997959136963,
				5.7374982833862305,
				3.7868332862854004
			]
		},
		{
			"children":[
				0,
				1,
				2,
				3,
				4,
				5,
				6,
				7,
				8,
				9
			],
			"name":"Logos"
		}
	],
	"animations":[
		{
			"channels":[
				{
					"sampler":0,
					"target":{
						"node":0,
						"path":"translation"
					}
				},
				{
					"sampler":1,
					"target":{
						"node":0,
						"path":"rotation"
					}
				}
			],
			"name":"CubeAction",
			"samplers":[
				{
					"input":32,
					"interpolation":"LINEAR",
					"output":33
				},
				{
					"input":32,
					"interpolation":"LINEAR",
					"output":34
				}
			]
		},
		{
			"channels":[
				{
					"sampler":0,
					"target":{
						"node":1,
						"path":"translation"
					}
				},
				{
					"sampler":1,
					"target":{
						"node":1,
						"path":"rotation"
					}
				}
			],
			"name":"Cube.001Action",
			"samplers":[
				{
					"input":32,
					"interpolation":"LINEAR",
					"output":35
				},
				{
					"input":32,
					"interpolation":"LINEAR",
					"output":36
				}
			]
		},
		{
			"channels":[
				{
					"sampler":0,
					"target":{
						"node":2,
						"path":"translation"
					}
				},
				{
					"sampler":1,
					"target":{
						"node":2,
						"path":"rotation"
					}
				}
			],
			"name":"Cube.002Action",
			"samplers":[
				{
					"input":32,
					"interpolation":"LINEAR",
					"output":37
				},
				{
					"input":32,
					"interpolation":"LINEAR",
					"output":38
				}
			]
		},
		{
			"channels":[
				{
					"sampler":0,
					"target":{
						"node":3,
						"path":"translation"
					}
				},
				{
					"sampler":1,
					"target":{
						"node":3,
						"path":"rotation"
					}
				}
			],
			"name":"Cube.003Action",
			"samplers":[
				{
					"input":32,
					"interpolation":"LINEAR",
					"output":39
				},
				{
					"input":32,
					"interpolation":"LINEAR",
					"output":40
				}
			]
		},
		{
			"channels":[
				{
					"sampler":0,
					"target":{
						"node":4,
						"path":"translation"
					}
				},
				{
					"sampler":1,
					"target":{
						"node":4,
						"path":"rotation"
					}
				}
			],
			"name":"Cube.004Action",
			"samplers":[
				{
					"input":32,
					"interpolation":"LINEAR",
					"output":41
				},
				{
					"input":32,
					"interpolation":"LINEAR",
					"output":42
				}
			]
		},
		{
			"channels":[
				{
					"sampler":0,
					"target":{
						"node":5,
						"path":"translation"
					}
				},
				{
					"sampler":1,
					"target":{
						"node":5,
						"path":"rotation"
					}
				}
			],
			"name":"Cube.005Action",
			"samplers":[
				{
					"input":32,
					"interpolation":"LINEAR",
					"output":43
				},
				{
					"input":32,
					"interpolation":"LINEAR",
					"output":44
				}
			]
		},
		{
			"channels":[
				{
					"sampler":0,
					"target":{
						"node":6,
						"path":"translation"
					}
				},
				{
					"sampler":1,
					"target":{
						"node":6,
						"path":"rotation"
					}
				}
			],
			"name":"Cube.006Action",
			"samplers":[
				{
					"input":32,
					"interpolation":"LINEAR",
					"output":45
				},
				{
					"input":32,
					"interpolation":"LINEAR",
					"output":46
				}
			]
		},
		{
			"channels":[
				{
					"sampler":0,
					"target":{
						"node":7,
						"path":"translation"
					}
				},
				{
					"sampler":1,
					"target":{
						"node":7,
						"path":"rotation"
					}
				}
			],
			"name":"Cube.007Action",
			"samplers":[
				{
					"input":32,
					"interpolation":"LINEAR",
					"output":47
				},
				{
					"input":32,
					"interpolation":"LINEAR",
					"output":48
				}
			]
		},
		{
			"channels":[
				{
					"sampler":0,
					"target":{
						"node":8,
						"path":"translation"
					}
				},
				{
					"sampler":1,
					"target":{
						"node":8,
						"path":"rotation"
					}
				}
			],
			"name":"Cube.008Action",
			"samplers":[
				{
					"input":32,
					"interpolation":"LINEAR",
					"output":49
				},
				{
					"input":32,
					"interpolation":"LINEAR",
					"output":50
				}
			]
		},
		{
			"channels":[
				{
					"sampler":0,
					"target":{
						"node":9,
						"path":"translation"
					}
				},
				{
					"sampler":1,
					"target":{
						"node":9,
						"path":"rotation"
					}
				}
			],
			"name":"Cube.009Action",
			"samplers":[
				{
					"input":32,
					"interpolation":"LINEAR",
					"output":51
				},
				{
					"input":32,
					"interpolation":"LINEAR",
					"output":52
				}
			]
		}
	],
	"materials":[
		{
			"doubleSided":true,
			"extensions":{
				"KHR_materials_specular":{
					"specularColorFactor":[
						0.18672112431164256,
						0.18672112431164256,
						0.18672112431164256
					]
				},
				"KHR_materials_ior":{
					"ior":1.4500000476837158
				}
			},
			"name":"Material.001",
			"pbrMetallicRoughness":{
				"baseColorTexture":{
					"index":0
				},
				"metallicFactor":0,
				"roughnessFactor":0
			}
		}
	],
	"meshes":[
		{
			"name":"Cube.003",
			"primitives":[
				{
					"attributes":{
						"POSITION":0,
						"TEXCOORD_0":1,
						"NORMAL":2
					},
					"indices":3,
					"material":0
				}
			]
		},
		{
			"name":"Cube.004",
			"primitives":[
				{
					"attributes":{
						"POSITION":4,
						"TEXCOORD_0":5,
						"NORMAL":6
					},
					"indices":7,
					"material":0
				}
			]
		},
		{
			"name":"Cube.005",
			"primitives":[
				{
					"attributes":{
						"POSITION":8,
						"TEXCOORD_0":9,
						"NORMAL":10
					},
					"indices":3,
					"material":0
				}
			]
		},
		{
			"name":"Cube.006",
			"primitives":[
				{
					"attributes":{
						"POSITION":11,
						"TEXCOORD_0":12,
						"NORMAL":13
					},
					"indices":3,
					"material":0
				}
			]
		},
		{
			"name":"Cube.007",
			"primitives":[
				{
					"attributes":{
						"POSITION":14,
						"TEXCOORD_0":15,
						"NORMAL":16
					},
					"indices":7,
					"material":0
				}
			]
		},
		{
			"name":"Cube.008",
			"primitives":[
				{
					"attributes":{
						"POSITION":17,
						"TEXCOORD_0":18,
						"NORMAL":19
					},
					"indices":3,
					"material":0
				}
			]
		},
		{
			"name":"Cube.009",
			"primitives":[
				{
					"attributes":{
						"POSITION":20,
						"TEXCOORD_0":21,
						"NORMAL":22
					},
					"indices":7,
					"material":0
				}
			]
		},
		{
			"name":"Cube.010",
			"primitives":[
				{
					"attributes":{
						"POSITION":23,
						"TEXCOORD_0":24,
						"NORMAL":25
					},
					"indices":3,
					"material":0
				}
			]
		},
		{
			"name":"Cube.011",
			"primitives":[
				{
					"attributes":{
						"POSITION":26,
						"TEXCOORD_0":27,
						"NORMAL":28
					},
					"indices":3,
					"material":0
				}
			]
		},
		{
			"name":"Cube.012",
			"primitives":[
				{
					"attributes":{
						"POSITION":29,
						"TEXCOORD_0":30,
						"NORMAL":31
					},
					"indices":3,
					"material":0
				}
			]
		}
	],
	"textures":[
		{
			"sampler":0,
			"source":0
		}
	],
	"images":[
		{
			"bufferView":4,
			"mimeType":"image/png",
			"name":"Logos"
		}
	],
	"accessors":[
		{
			"bufferView":0,
			"componentType":5126,
			"count":520,
			"max":[
				1,
				0.1614956259727478,
				1
			],
			"min":[
				-1,
				-0.1614956259727478,
				-1
			],
			"type":"VEC3"
		},
		{
			"bufferView":1,
			"componentType":5126,
			"count":520,
			"type":"VEC2"
		},
		{
			"bufferView":2,
			"componentType":5126,
			"count":520,
			"type":"VEC3"
		},
		{
			"bufferView":3,
			"componentType":5123,
			"count":2868,
			"type":"SCALAR"
		},
		{
			"bufferView":5,
			"componentType":5126,
			"count":520,
			"max":[
				1,
				0.1614956259727478,
				1
			],
			"min":[
				-1,
				-0.1614956259727478,
				-1
			],
			"type":"VEC3"
		},
		{
			"bufferView":6,
			"componentType":5126,
			"count":520,
			"type":"VEC2"
		},
		{
			"bufferView":7,
			"componentType":5126,
			"count":520,
			"type":"VEC3"
		},
		{
			"bufferView":8,
			"componentType":5123,
			"count":2868,
			"type":"SCALAR"
		},
		{
			"bufferView":9,
			"componentType":5126,
			"count":520,
			"max":[
				1,
				0.1614956259727478,
				1
			],
			"min":[
				-1,
				-0.1614956259727478,
				-1
			],
			"type":"VEC3"
		},
		{
			"bufferView":10,
			"componentType":5126,
			"count":520,
			"type":"VEC2"
		},
		{
			"bufferView":11,
			"componentType":5126,
			"count":520,
			"type":"VEC3"
		},
		{
			"bufferView":12,
			"componentType":5126,
			"count":520,
			"max":[
				1,
				0.1614956259727478,
				1
			],
			"min":[
				-1,
				-0.1614956259727478,
				-1
			],
			"type":"VEC3"
		},
		{
			"bufferView":13,
			"componentType":5126,
			"count":520,
			"type":"VEC2"
		},
		{
			"bufferView":14,
			"componentType":5126,
			"count":520,
			"type":"VEC3"
		},
		{
			"bufferView":15,
			"componentType":5126,
			"count":520,
			"max":[
				1,
				0.1614956259727478,
				1
			],
			"min":[
				-1,
				-0.1614956259727478,
				-1
			],
			"type":"VEC3"
		},
		{
			"bufferView":16,
			"componentType":5126,
			"count":520,
			"type":"VEC2"
		},
		{
			"bufferView":17,
			"componentType":5126,
			"count":520,
			"type":"VEC3"
		},
		{
			"bufferView":18,
			"componentType":5126,
			"count":520,
			"max":[
				1,
				0.1614956259727478,
				1
			],
			"min":[
				-1,
				-0.1614956259727478,
				-1
			],
			"type":"VEC3"
		},
		{
			"bufferView":19,
			"componentType":5126,
			"count":520,
			"type":"VEC2"
		},
		{
			"bufferView":20,
			"componentType":5126,
			"count":520,
			"type":"VEC3"
		},
		{
			"bufferView":21,
			"componentType":5126,
			"count":520,
			"max":[
				1,
				0.1614956259727478,
				1
			],
			"min":[
				-1,
				-0.1614956259727478,
				-1
			],
			"type":"VEC3"
		},
		{
			"bufferView":22,
			"componentType":5126,
			"count":520,
			"type":"VEC2"
		},
		{
			"bufferView":23,
			"componentType":5126,
			"count":520,
			"type":"VEC3"
		},
		{
			"bufferView":24,
			"componentType":5126,
			"count":520,
			"max":[
				1,
				0.1614956259727478,
				1
			],
			"min":[
				-1,
				-0.1614956259727478,
				-1
			],
			"type":"VEC3"
		},
		{
			"bufferView":25,
			"componentType":5126,
			"count":520,
			"type":"VEC2"
		},
		{
			"bufferView":26,
			"componentType":5126,
			"count":520,
			"type":"VEC3"
		},
		{
			"bufferView":27,
			"componentType":5126,
			"count":520,
			"max":[
				1,
				0.1614956259727478,
				1
			],
			"min":[
				-1,
				-0.1614956259727478,
				-1
			],
			"type":"VEC3"
		},
		{
			"bufferView":28,
			"componentType":5126,
			"count":520,
			"type":"VEC2"
		},
		{
			"bufferView":29,
			"componentType":5126,
			"count":520,
			"type":"VEC3"
		},
		{
			"bufferView":30,
			"componentType":5126,
			"count":520,
			"max":[
				1,
				0.1614956259727478,
				1
			],
			"min":[
				-1,
				-0.1614956259727478,
				-1
			],
			"type":"VEC3"
		},
		{
			"bufferView":31,
			"componentType":5126,
			"count":520,
			"type":"VEC2"
		},
		{
			"bufferView":32,
			"componentType":5126,
			"count":520,
			"type":"VEC3"
		},
		{
			"bufferView":33,
			"componentType":5126,
			"count":404,
			"max":[
				16.833333333333332
			],
			"min":[
				0.041666666666666664
			],
			"type":"SCALAR"
		},
		{
			"bufferView":34,
			"componentType":5126,
			"count":404,
			"type":"VEC3"
		},
		{
			"bufferView":35,
			"componentType":5126,
			"count":404,
			"type":"VEC4"
		},
		{
			"bufferView":36,
			"componentType":5126,
			"count":404,
			"type":"VEC3"
		},
		{
			"bufferView":37,
			"componentType":5126,
			"count":404,
			"type":"VEC4"
		},
		{
			"bufferView":38,
			"componentType":5126,
			"count":404,
			"type":"VEC3"
		},
		{
			"bufferView":39,
			"componentType":5126,
			"count":404,
			"type":"VEC4"
		},
		{
			"bufferView":40,
			"componentType":5126,
			"count":404,
			"type":"VEC3"
		},
		{
			"bufferView":41,
			"componentType":5126,
			"count":404,
			"type":"VEC4"
		},
		{
			"bufferView":42,
			"componentType":5126,
			"count":404,
			"type":"VEC3"
		},
		{
			"bufferView":43,
			"componentType":5126,
			"count":404,
			"type":"VEC4"
		},
		{
			"bufferView":44,
			"componentType":5126,
			"count":404,
			"type":"VEC3"
		},
		{
			"bufferView":45,
			"componentType":5126,
			"count":404,
			"type":"VEC4"
		},
		{
			"bufferView":46,
			"componentType":5126,
			"count":404,
			"type":"VEC3"
		},
		{
			"bufferView":47,
			"componentType":5126,
			"count":404,
			"type":"VEC4"
		},
		{
			"bufferView":48,
			"componentType":5126,
			"count":404,
			"type":"VEC3"
		},
		{
			"bufferView":49,
			"componentType":5126,
			"count":404,
			"type":"VEC4"
		},
		{
			"bufferView":50,
			"componentType":5126,
			"count":404,
			"type":"VEC3"
		},
		{
			"bufferView":51,
			"componentType":5126,
			"count":404,
			"type":"VEC4"
		},
		{
			"bufferView":52,
			"componentType":5126,
			"count":404,
			"type":"VEC3"
		},
		{
			"bufferView":53,
			"componentType":5126,
			"count":404,
			"type":"VEC4"
		}
	],
	"bufferViews":[
		{
			"buffer":0,
			"byteLength":6240,
			"byteOffset":0,
			"target":34962
		},
		{
			"buffer":0,
			"byteLength":4160,
			"byteOffset":6240,
			"target":34962
		},
		{
			"buffer":0,
			"byteLength":6240,
			"byteOffset":10400,
			"target":34962
		},
		{
			"buffer":0,
			"byteLength":5736,
			"byteOffset":16640,
			"target":34963
		},
		{
			"buffer":0,
			"byteLength":147675,
			"byteOffset":22376
		},
		{
			"buffer":0,
			"byteLength":6240,
			"byteOffset":170052,
			"target":34962
		},
		{
			"buffer":0,
			"byteLength":4160,
			"byteOffset":176292,
			"target":34962
		},
		{
			"buffer":0,
			"byteLength":6240,
			"byteOffset":180452,
			"target":34962
		},
		{
			"buffer":0,
			"byteLength":5736,
			"byteOffset":186692,
			"target":34963
		},
		{
			"buffer":0,
			"byteLength":6240,
			"byteOffset":192428,
			"target":34962
		},
		{
			"buffer":0,
			"byteLength":4160,
			"byteOffset":198668,
			"target":34962
		},
		{
			"buffer":0,
			"byteLength":6240,
			"byteOffset":202828,
			"target":34962
		},
		{
			"buffer":0,
			"byteLength":6240,
			"byteOffset":209068,
			"target":34962
		},
		{
			"buffer":0,
			"byteLength":4160,
			"byteOffset":215308,
			"target":34962
		},
		{
			"buffer":0,
			"byteLength":6240,
			"byteOffset":219468,
			"target":34962
		},
		{
			"buffer":0,
			"byteLength":6240,
			"byteOffset":225708,
			"target":34962
		},
		{
			"buffer":0,
			"byteLength":4160,
			"byteOffset":231948,
			"target":34962
		},
		{
			"buffer":0,
			"byteLength":6240,
			"byteOffset":236108,
			"target":34962
		},
		{
			"buffer":0,
			"byteLength":6240,
			"byteOffset":242348,
			"target":34962
		},
		{
			"buffer":0,
			"byteLength":4160,
			"byteOffset":248588,
			"target":34962
		},
		{
			"buffer":0,
			"byteLength":6240,
			"byteOffset":252748,
			"target":34962
		},
		{
			"buffer":0,
			"byteLength":6240,
			"byteOffset":258988,
			"target":34962
		},
		{
			"buffer":0,
			"byteLength":4160,
			"byteOffset":265228,
			"target":34962
		},
		{
			"buffer":0,
			"byteLength":6240,
			"byteOffset":269388,
			"target":34962
		},
		{
			"buffer":0,
			"byteLength":6240,
			"byteOffset":275628,
			"target":34962
		},
		{
			"buffer":0,
			"byteLength":4160,
			"byteOffset":281868,
			"target":34962
		},
		{
			"buffer":0,
			"byteLength":6240,
			"byteOffset":286028,
			"target":34962
		},
		{
			"buffer":0,
			"byteLength":6240,
			"byteOffset":292268,
			"target":34962
		},
		{
			"buffer":0,
			"byteLength":4160,
			"byteOffset":298508,
			"target":34962
		},
		{
			"buffer":0,
			"byteLength":6240,
			"byteOffset":302668,
			"target":34962
		},
		{
			"buffer":0,
			"byteLength":6240,
			"byteOffset":308908,
			"target":34962
		},
		{
			"buffer":0,
			"byteLength":4160,
			"byteOffset":315148,
			"target":34962
		},
		{
			"buffer":0,
			"byteLength":6240,
			"byteOffset":319308,
			"target":34962
		},
		{
			"buffer":0,
			"byteLength":1616,
			"byteOffset":325548
		},
		{
			"buffer":0,
			"byteLength":4848,
			"byteOffset":327164
		},
		{
			"buffer":0,
			"byteLength":6464,
			"byteOffset":332012
		},
		{
			"buffer":0,
			"byteLength":4848,
			"byteOffset":338476
		},
		{
			"buffer":0,
			"byteLength":6464,
			"byteOffset":343324
		},
		{
			"buffer":0,
			"byteLength":4848,
			"byteOffset":349788
		},
		{
			"buffer":0,
			"byteLength":6464,
			"byteOffset":354636
		},
		{
			"buffer":0,
			"byteLength":4848,
			"byteOffset":361100
		},
		{
			"buffer":0,
			"byteLength":6464,
			"byteOffset":365948
		},
		{
			"buffer":0,
			"byteLength":4848,
			"byteOffset":372412
		},
		{
			"buffer":0,
			"byteLength":6464,
			"byteOffset":377260
		},
		{
			"buffer":0,
			"byteLength":4848,
			"byteOffset":383724
		},
		{
			"buffer":0,
			"byteLength":6464,
			"byteOffset":388572
		},
		{
			"buffer":0,
			"byteLength":4848,
			"byteOffset":395036
		},
		{
			"buffer":0,
			"byteLength":6464,
			"byteOffset":399884
		},
		{
			"buffer":0,
			"byteLength":4848,
			"byteOffset":406348
		},
		{
			"buffer":0,
			"byteLength":6464,
			"byteOffset":411196
		},
		{
			"buffer":0,
			"byteLength":4848,
			"byteOffset":417660
		},
		{
			"buffer":0,
			"byteLength":6464,
			"byteOffset":422508
		},
		{
			"buffer":0,
			"byteLength":4848,
			"byteOffset":428972
		},
		{
			"buffer":0,
			"byteLength":6464,
			"byteOffset":433820
		}
	],
	"samplers":[
		{
			"magFilter":9729,
			"minFilter":9987
		}
	],
	"buffers":[
		{
			"byteLength":440284,
			"uri":"data:application/octet-stream;base64,"
		}
	]
}
